<svg xmlns="http://www.w3.org/2000/svg" xmlns:xlink="http://www.w3.org/1999/xlink" width="100px" height="100px" viewBox="3.75 -7.5 75.0 101.25" version="1.1">
  <g id="surface1">
    <path style=" stroke:none;fill-rule:nonzero;fill:rgb(0.392157%,0.392157%,0.392157%);fill-opacity:1;" d="M 55.878906 11.070312 L 55.878906 6.96875 L 19.121094 6.96875 L 19.121094 11.070312 L 6.492188 11.070312 L 6.492188 22.011719 C 6.492188 42.039062 18.492188 51.875 29.921875 54.488281 C 30.128906 55.265625 30.328125 56.957031 30.414062 57.65625 C 30.417969 57.6875 30.421875 57.710938 30.425781 57.742188 C 25.824219 59.25 22.59375 63.617188 22.59375 68.535156 L 22.59375 69.796875 L 52.40625 69.796875 L 52.40625 68.535156 C 52.40625 63.617188 49.175781 59.25 44.570312 57.742188 C 44.578125 57.710938 44.578125 57.6875 44.585938 57.65625 C 44.667969 56.957031 44.871094 55.265625 45.074219 54.488281 C 56.503906 51.875 68.503906 42.039062 68.503906 22.011719 L 68.503906 11.070312 Z M 65.984375 22.015625 C 65.984375 45.714844 49.164062 51.0625 44.011719 52.136719 C 42.78125 52.390625 42.515625 53.695312 42.078125 57.359375 C 42.019531 57.84375 41.976562 58.226562 41.941406 58.390625 L 41.65625 59.632812 L 42.90625 59.90625 C 46.53125 60.683594 49.261719 63.6875 49.789062 67.273438 L 25.210938 67.273438 C 25.738281 63.6875 28.46875 60.683594 32.09375 59.90625 L 33.34375 59.632812 L 33.058594 58.390625 C 33.023438 58.226562 32.980469 57.84375 32.921875 57.359375 C 32.484375 53.695312 32.21875 52.390625 30.988281 52.136719 C 25.835938 51.0625 9.015625 45.714844 9.015625 22.015625 L 9.015625 13.597656 L 21.644531 13.597656 L 21.644531 9.492188 L 53.351562 9.492188 L 53.351562 13.597656 L 65.980469 13.597656 L 65.980469 22.015625 Z M 65.984375 22.015625 "/>
    <path style=" stroke:none;fill-rule:nonzero;fill:rgb(0.392157%,0.392157%,0.392157%);fill-opacity:1;" d="M 20.710938 17.1875 L 13.078125 17.1875 L 13.078125 23.859375 C 13.078125 29.191406 15.109375 36.65625 19.328125 42 C 21.871094 45.222656 26.191406 47.53125 26.191406 47.53125 C 26.191406 47.53125 20.710938 37.605469 19.632812 30.25 C 18.738281 24.132812 20.710938 17.1875 20.710938 17.1875 Z M 20.710938 17.1875 "/>
    <path style=" stroke:none;fill-rule:nonzero;fill:rgb(0.392157%,0.392157%,0.392157%);fill-opacity:1;" d="M 48.71875 47.535156 C 48.71875 47.535156 53.039062 45.226562 55.585938 42.003906 C 59.804688 36.660156 61.835938 29.195312 61.835938 23.863281 L 61.835938 17.1875 L 54.203125 17.1875 C 54.203125 17.1875 56.171875 24.132812 55.277344 30.253906 C 54.199219 37.609375 48.71875 47.535156 48.71875 47.535156 Z M 48.71875 47.535156 "/>
    <path style=" stroke:none;fill-rule:nonzero;fill:rgb(0.392157%,0.392157%,0.392157%);fill-opacity:1;" d="M 47.09375 26.59375 L 40.867188 25.6875 L 38.082031 20.042969 C 37.972656 19.820312 37.746094 19.679688 37.5 19.679688 C 37.253906 19.679688 37.03125 19.820312 36.921875 20.042969 L 34.132812 25.6875 L 27.90625 26.59375 C 27.660156 26.628906 27.457031 26.796875 27.382812 27.03125 C 27.304688 27.265625 27.371094 27.523438 27.546875 27.695312 L 32.054688 32.089844 L 30.988281 38.296875 C 30.949219 38.539062 31.046875 38.78125 31.246094 38.929688 C 31.359375 39.011719 31.492188 39.050781 31.625 39.050781 C 31.730469 39.050781 31.832031 39.027344 31.929688 38.976562 L 37.5 36.046875 L 43.070312 38.976562 C 43.289062 39.089844 43.554688 39.070312 43.753906 38.925781 C 43.953125 38.78125 44.050781 38.539062 44.007812 38.292969 L 42.945312 32.089844 L 47.453125 27.695312 C 47.632812 27.523438 47.691406 27.265625 47.617188 27.03125 C 47.539062 26.796875 47.339844 26.628906 47.09375 26.59375 Z M 47.09375 26.59375 "/>
  </g>
<text x="0.0" y="88.125" font-size="3.75" font-weight="bold" font-family="Helvetica Neue, Helvetica, Arial-Unicode, Arial, Sans-serif" fill="#000000">Created by Lloyd Humphreys</text><text x="0.0" y="91.875" font-size="3.75" font-weight="bold" font-family="Helvetica Neue, Helvetica, Arial-Unicode, Arial, Sans-serif" fill="#000000">from the Noun Project</text></svg>